<?xml version="1.0" encoding="utf-8"?>
<!-- Generator: Adobe Illustrator 21.0.0, SVG Export Plug-In . SVG Version: 6.00 Build 0)  -->
<svg version="1.1" id="Capa_1" xmlns="http://www.w3.org/2000/svg" xmlns:xlink="http://www.w3.org/1999/xlink" x="0px" y="0px"
	 viewBox="0 0 350 200" style="enable-background:new 0 0 350 200;" xml:space="preserve">
<style type="text/css">
	.st0{fill:#587CA9;}
	.st1{fill:#C85527;}
	.st2{fill:#E9C75F;}
	.st3{fill:#D0A73E;}
</style>
<path class="st0" d="M346,162.8c0,16.6-15.9,30.2-35.3,30.2H38.5c-19.4,0-35.3-13.6-35.3-30.2V39.1C3.2,22.6,19.1,9,38.5,9h272.1
	C330.1,9,346,22.6,346,39.1V162.8z"/>
<g>
	<ellipse class="st1" cx="296.4" cy="149.7" rx="21.1" ry="21.8"/>
	<ellipse class="st2" cx="270.8" cy="149.7" rx="21.1" ry="21.8"/>
</g>
<g>
	<path class="st2" d="M88.4,77.9c0,1.7-1.2,3-2.8,3h-41c-1.5,0-2.8-1.4-2.8-3V45.7c0-1.7,1.2-3,2.8-3h41c1.5,0,2.8,1.4,2.8,3V77.9z"
		/>
	<path class="st3" d="M83.8,55.6L83.8,55.6l-0.1-6.2c0-1.7-1.3-3.1-2.8-3.1H49.3c-1.6,0-2.8,1.4-2.8,3.1v18.5L46.5,68l0.1,0.1v6.1
		c0,1.7,1.3,3.1,2.8,3.1h31.5c1.6,0,2.8-1.4,2.8-3.1L83.8,55.6L83.8,55.6z M47.9,49.4c0-0.9,0.6-1.6,1.4-1.6H60v9l-12.1,9.9V49.4z
		 M47.9,74.2v-5.5l13.5-11v-9.8h19.5c0.8,0,1.4,0.7,1.4,1.6v5.5L68.8,66v9.8H49.3C48.6,75.8,47.9,75.1,47.9,74.2z M82.3,74.2
		c0,0.9-0.6,1.6-1.4,1.6H70.2v-9l12.1-9.9V74.2z"/>
</g>
</svg>
